<svg xmlns:dc="http://purl.org/dc/elements/1.1/" xmlns:cc="http://creativecommons.org/ns#" xmlns:rdf="http://www.w3.org/1999/02/22-rdf-syntax-ns#" xmlns:svg="http://www.w3.org/2000/svg" xmlns="http://www.w3.org/2000/svg" xmlns:sodipodi="http://sodipodi.sourceforge.net/DTD/sodipodi-0.dtd" xmlns:inkscape="http://www.inkscape.org/namespaces/inkscape" viewBox="0 0 6.6145832 8.268229375" version="1.1" x="0px" y="0px"><g transform="translate(0,-290.38541)"><rect style="display:inline;opacity:1;vector-effect:none;fill:none;fill-opacity:1;stroke:none;stroke-width:0.02645833;stroke-linecap:round;stroke-linejoin:round;stroke-miterlimit:4;stroke-dasharray:none;stroke-dashoffset:0;stroke-opacity:1;paint-order:normal" width="6.614584" height="6.6145897" x="-6.5429685e-07" y="290.38541"/><path style="color:#000000;font-style:normal;font-variant:normal;font-weight:normal;font-stretch:normal;font-size:medium;line-height:normal;font-family:sans-serif;font-variant-ligatures:normal;font-variant-position:normal;font-variant-caps:normal;font-variant-numeric:normal;font-variant-alternates:normal;font-feature-settings:normal;text-indent:0;text-align:start;text-decoration:none;text-decoration-line:none;text-decoration-style:solid;text-decoration-color:#000000;letter-spacing:normal;word-spacing:normal;text-transform:none;writing-mode:lr-tb;direction:ltr;text-orientation:mixed;dominant-baseline:auto;baseline-shift:baseline;text-anchor:start;white-space:normal;shape-padding:0;clip-rule:nonzero;display:inline;overflow:visible;visibility:visible;opacity:1;isolation:auto;mix-blend-mode:normal;color-interpolation:sRGB;color-interpolation-filters:linearRGB;solid-color:#000000;solid-opacity:1;vector-effect:none;fill:#000000;fill-opacity:1;fill-rule:nonzero;stroke:none;stroke-width:0.26458332;stroke-linecap:round;stroke-linejoin:round;stroke-miterlimit:4;stroke-dasharray:none;stroke-dashoffset:0;stroke-opacity:1;paint-order:stroke fill markers;color-rendering:auto;image-rendering:auto;shape-rendering:auto;text-rendering:auto;enable-background:accumulate" d="m 3.307281,291.70782 c -1.094372,0 -1.984375,0.88999 -1.984375,1.98437 0,1.09437 0.890003,1.98438 1.984375,1.98438 1.094372,0 1.984375,-0.89001 1.984375,-1.98438 0,-1.09438 -0.890003,-1.98437 -1.984375,-1.98437 z m 0,0.26561 c 0.951381,0 1.720826,0.76738 1.720826,1.71876 0,0.95138 -0.769445,1.72082 -1.720826,1.72082 -0.951381,0 -1.720826,-0.76944 -1.720826,-1.72082 0,-0.95138 0.769445,-1.71876 1.720826,-1.71876 z m 0,0.52917 c -0.363744,0 -0.661972,0.29668 -0.661974,0.66042 a 0.1328125,0.1328125 0 1 0 0.265615,0 c 3e-6,-0.22075 0.175607,-0.39635 0.396359,-0.39635 0.220752,0 0.396356,0.1756 0.396359,0.39635 0,0.1326 -0.0625,0.2079 -0.171566,0.3142 -0.10907,0.10631 -0.26088,0.22609 -0.345716,0.42788 a 0.1323049,0.1323049 0 1 0 0.241846,0.10335 c 0.0544,-0.12938 0.166616,-0.22394 0.287321,-0.34158 0.120706,-0.11765 0.25373,-0.27587 0.25373,-0.50385 -5e-6,-0.36374 -0.29823,-0.66042 -0.661974,-0.66042 z m 0,1.84898 a 0.13230489,0.13230489 0 0 0 -0.01551,5.3e-4 0.13230489,0.13230489 0 0 0 -0.117305,0.13487 v 0.26406 a 0.132813,0.132813 0 0 0 0.265615,0 v -0.26407 a 0.13230489,0.13230489 0 0 0 -0.132805,-0.13539 z"/></g><text x="0" y="21.614583500000002" fill="#000000" font-size="5px" font-weight="bold" font-family="'Helvetica Neue', Helvetica, Arial-Unicode, Arial, Sans-serif">Created by Tino Arip Rianto</text><text x="0" y="26.614583500000002" fill="#000000" font-size="5px" font-weight="bold" font-family="'Helvetica Neue', Helvetica, Arial-Unicode, Arial, Sans-serif">from the Noun Project</text></svg>