<svg xmlns="http://www.w3.org/2000/svg" viewBox="0 0 100 125" x="0px" y="0px"><path d="M77.2666,34.95593V18.31348a3.20208,3.20208,0,0,0-3.19824-3.19873H69.50391a3.20208,3.20208,0,0,0-3.19825,3.19873v6.24817L52.33789,11.31592a3.39726,3.39726,0,0,0-4.67578,0L17.31445,40.09473a3.39739,3.39739,0,0,0,2.416,5.86181,1.3987,1.3987,0,0,1,1.39746,1.397V84.13428a3.40047,3.40047,0,0,0,3.39648,3.397h14.29a3.4013,3.4013,0,0,0,3.39746-3.397v-18.585a1.39787,1.39787,0,0,1,1.39649-1.397H56.3916a1.39787,1.39787,0,0,1,1.39649,1.397v18.585a3.4013,3.4013,0,0,0,3.39746,3.397h14.29a3.40047,3.40047,0,0,0,3.39648-3.397V47.35352a1.4176,1.4176,0,0,1,1.47559-1.397,3.39667,3.39667,0,0,0,2.33789-5.86181ZM68.30566,18.31348a1.19947,1.19947,0,0,1,1.19825-1.19873h4.56445a1.19947,1.19947,0,0,1,1.19824,1.19873V33.05933l-6.96094-6.60108ZM81.64551,43.07715a1.4051,1.4051,0,0,1-1.376.87939,3.4013,3.4013,0,0,0-3.39746,3.397V84.13428a1.39786,1.39786,0,0,1-1.39648,1.397h-14.29a1.39869,1.39869,0,0,1-1.39746-1.397v-18.585a3.40047,3.40047,0,0,0-3.39649-3.397H43.6084a3.40047,3.40047,0,0,0-3.39649,3.397v18.585a1.39869,1.39869,0,0,1-1.39746,1.397h-14.29a1.39786,1.39786,0,0,1-1.39648-1.397V47.35352a3.41887,3.41887,0,0,0-3.47559-3.397,1.39663,1.39663,0,0,1-.96093-2.41064L49.03906,12.76709a1.39684,1.39684,0,0,1,1.92188,0L81.30859,41.5459A1.36862,1.36862,0,0,1,81.64551,43.07715Z"/><text x="0" y="115" fill="#000000" font-size="5px" font-weight="bold" font-family="'Helvetica Neue', Helvetica, Arial-Unicode, Arial, Sans-serif">Created by Tom Fricker</text><text x="0" y="120" fill="#000000" font-size="5px" font-weight="bold" font-family="'Helvetica Neue', Helvetica, Arial-Unicode, Arial, Sans-serif">from the Noun Project</text></svg>